<!DOCTYPE svg PUBLIC "-//W3C//DTD SVG 1.1//EN" "http://www.w3.org/Graphics/SVG/1.1/DTD/svg11.dtd">
<!-- Uploaded to: SVG Repo, www.svgrepo.com, Transformed by: SVG Repo Mixer Tools -->
<svg fill="#ffffff" version="1.1" id="Capa_1" xmlns="http://www.w3.org/2000/svg" xmlns:xlink="http://www.w3.org/1999/xlink" viewBox="-86.13 -86.13 469.26 469.26" xml:space="preserve" width="256px" height="256px" stroke="#ffffff" transform="matrix(1, 0, 0, 1, 0, 0)rotate(0)">
<g id="SVGRepo_bgCarrier" stroke-width="0">
<path transform="translate(-86.13, -86.13), scale(14.664375000000001)" d="M16,27.989526242017746C17.83653376877979,27.748437166644592,19.815741381272808,29.122532470692526,21.48609292348177,28.321966451195745C23.164286427592508,27.517641936516302,23.208946303232672,24.951321887680024,24.690052366364025,23.824558295834183C26.59872244169917,22.372521873009436,30.393031025750826,23.1973405292449,31.193785030819964,20.9367600168421C31.982350716959512,18.710587919603956,28.49750498557463,17.034903108586285,27.9049332029979,14.748741099809948C27.419574852598412,12.876212143907498,28.65444351246445,10.866477876316232,28.102982643025406,9.012339713051919C27.522327937786727,7.060045165376802,26.210528008403625,5.388732416647084,24.711070348337124,4.010240264596261C23.139003708417544,2.5649967053123395,21.35216863517976,0.9804492384146335,19.220910131251536,0.8468092165898629C17.065708109170536,0.7116678225558555,15.203272553360067,2.275641983202661,13.299399667102989,3.294674360185171C11.729400337221726,4.135003649256112,10.595013078747607,5.591616122250393,8.974964287484697,6.3308678546296075C6.912156028744353,7.272157146078161,4.167106406452074,6.660830930758535,2.5162775293906137,8.215169201915456C0.9238413399386161,9.714527825957978,-0.014990826575357163,12.225932120387048,0.4422807414909613,14.364817814856309C0.9284746958041487,16.638987840374053,4.059973379401242,17.44170309724047,4.948294339200682,19.590916846162404C5.7436022335835455,21.51509373558277,4.259505520995475,23.885486157224882,5.154415003567861,25.76540859356346C6.054218961627012,27.655612778459705,7.782039276685594,29.43118560492331,9.832808292824103,29.851739366034156C11.959673076124318,30.28789818106996,13.847342936264587,28.272114076727842,16,27.989526242017746" fill="#117bfd" strokewidth="0"/>
</g>
<g id="SVGRepo_tracerCarrier" stroke-linecap="round" stroke-linejoin="round"/>
<g id="SVGRepo_iconCarrier"> <g> <path d="M237.333,33h-50.14c-2.558-18.613-18.556-33-37.86-33s-35.303,14.387-37.86,33h-51.14C50.408,33,42,41.075,42,51v228 c0,9.925,8.408,18,18.333,18h177c9.925,0,17.667-8.075,17.667-18V51C255,41.075,247.258,33,237.333,33z M93.052,48 c3.432,18.033,19.084,31,38.092,31h36.379c19.008,0,34.66-12.967,38.092-31H223v216H75V48H93.052z M149.333,16 c10.456,0,19.242,7.259,21.601,17h-43.201C130.091,23.259,138.877,16,149.333,16z"/> <rect x="99" y="109" width="50" height="15"/> <polygon points="200.689,105.076 189.645,94.924 175.427,110.39 169.237,105.347 159.763,116.976 176.907,130.944 "/> <rect x="99" y="157" width="50" height="15"/> <polygon points="200.689,153.076 189.645,142.924 175.427,158.39 169.237,153.347 159.763,164.976 176.907,178.944 "/> <rect x="99" y="205" width="50" height="15"/> <polygon points="200.689,201.076 189.645,190.924 175.427,206.39 169.237,201.347 159.763,212.976 176.907,226.944 "/> </g> </g>
</svg>